<svg xmlns="http://www.w3.org/2000/svg" width="184" height="85" viewBox="0 0 184 85" fill="none"><path d="M7.55821 52.6145C7.55821 53.3647 7.31323 53.9495 6.81999 54.3691C6.32676 54.7887 5.67673 54.9985 4.86665 54.9985H2.93617V58.0372H2.05096V50.3068H5.02344C5.77799 50.3068 6.38229 50.4944 6.82652 50.8695C7.30996 51.2827 7.55168 51.8644 7.55168 52.6145H7.55821ZM6.673 52.6463C6.673 51.6069 6.11444 51.0888 4.99404 51.0888H2.93944V54.2134H4.87972C6.07524 54.2134 6.673 53.6889 6.673 52.6463Z" fill="#A3BA0D"></path><path d="M12.2225 52.2616L12.0069 53.1008C11.7423 52.9546 11.4418 52.8814 11.1119 52.8814C10.6971 52.8814 10.3769 53.0372 10.1516 53.3455C9.92944 53.6538 9.81512 54.0861 9.81512 54.636V58.0371H8.95277V52.2394H9.81512V52.9577C9.95884 52.7162 10.1646 52.5127 10.4292 52.357C10.6938 52.198 10.9812 52.1186 11.2916 52.1186C11.6933 52.1186 12.0036 52.1663 12.2225 52.2616Z" fill="#A3BA0D"></path><path d="M18.4421 55.097C18.4421 56.0474 18.1873 56.8007 17.681 57.3602C17.2041 57.891 16.5867 58.1548 15.8322 58.1548C15.0776 58.1548 14.4668 57.8974 14.0029 57.3824C13.5097 56.8389 13.2647 56.0887 13.2647 55.1415C13.2647 54.1943 13.5195 53.441 14.0258 52.8879C14.5027 52.3729 15.1201 52.1155 15.8746 52.1155C16.6292 52.1155 17.24 52.3666 17.7038 52.8656C18.1938 53.4028 18.4421 54.1466 18.4421 55.097ZM17.5797 55.1193C17.5797 54.3755 17.4229 53.8097 17.1093 53.4187C16.7958 53.0277 16.3744 52.8338 15.8485 52.8338C15.3226 52.8338 14.9012 53.0277 14.5942 53.4187C14.2839 53.8097 14.1303 54.3755 14.1303 55.1193C14.1303 55.8631 14.2839 56.4352 14.5942 56.8357C14.9045 57.2362 15.3226 57.4365 15.8485 57.4365C16.3744 57.4365 16.7958 57.2362 17.1093 56.8357C17.4229 56.4352 17.5797 55.8631 17.5797 55.1193Z" fill="#A3BA0D"></path><path d="M24.4788 57.5159C24.4788 58.4059 24.2534 59.0576 23.7993 59.4708C23.329 59.9062 22.5516 60.1383 21.4606 60.1669L21.1894 59.5375C22.153 59.5089 22.8063 59.35 23.1428 59.0639C23.4596 58.8001 23.6164 58.3201 23.6164 57.6272V57.3284C23.0971 57.8815 22.4993 58.158 21.8297 58.158C21.196 58.158 20.6929 57.926 20.3238 57.4619C19.909 56.947 19.6999 56.2032 19.6999 55.2305C19.6999 54.2579 19.9188 53.4664 20.3565 52.9006C20.7648 52.3761 21.2907 52.1155 21.9407 52.1155C22.5907 52.1155 23.146 52.3729 23.6164 52.8879V52.2363H24.4788V57.5159ZM23.6164 56.6005V53.708C23.2244 53.1263 22.6887 52.837 22.0093 52.837C21.0294 52.837 20.5394 53.6317 20.5394 55.221C20.5394 55.9425 20.6701 56.4924 20.9347 56.8707C21.1992 57.2489 21.5683 57.4396 22.042 57.4396C22.6299 57.4396 23.1526 57.1599 23.6132 56.6005H23.6164Z" fill="#A3BA0D"></path><path d="M29.6098 52.2616L29.3943 53.1008C29.1297 52.9546 28.8292 52.8814 28.4992 52.8814C28.0844 52.8814 27.7643 53.0372 27.5389 53.3455C27.3168 53.6538 27.2025 54.0861 27.2025 54.636V58.0371H26.3401V52.2394H27.2025V52.9577C27.3462 52.7162 27.5487 52.5127 27.8166 52.357C28.0811 52.198 28.3686 52.1186 28.6789 52.1186C29.0807 52.1186 29.391 52.1663 29.6098 52.2616Z" fill="#A3BA0D"></path><path d="M35.2479 58.0371H34.3856V57.3315C33.8662 57.8846 33.2456 58.1611 32.5302 58.1611C31.9945 58.1611 31.5601 58.0276 31.2302 57.7638C30.8317 57.4396 30.6292 56.9532 30.6292 56.3048C30.6292 55.6945 30.8643 55.2241 31.3314 54.8903C31.7397 54.5947 32.2624 54.4485 32.9059 54.4485C33.4775 54.4485 33.974 54.5598 34.3888 54.7791V54.0957C34.3888 53.2406 33.9577 52.8147 33.0986 52.8147C32.54 52.8147 32.0011 52.9609 31.4817 53.2565L31.1649 52.5827C31.7463 52.2743 32.4126 52.1186 33.1639 52.1186C34.5554 52.1186 35.2512 52.7448 35.2512 53.9971V58.0403L35.2479 58.0371ZM34.3856 56.6131V55.4434C33.9773 55.2209 33.471 55.1128 32.8601 55.1128C31.9325 55.1128 31.4686 55.4911 31.4686 56.2508C31.4686 57.0772 31.8704 57.4872 32.6772 57.4872C33.386 57.4872 33.9544 57.198 34.3856 56.6163V56.6131Z" fill="#A3BA0D"></path><path d="M44.8745 58.0372H44.0122V54.6457C44.0122 53.9972 43.9076 53.5331 43.7019 53.2534C43.4961 52.9737 43.1727 52.8338 42.735 52.8338C41.853 52.8338 41.4121 53.4378 41.4121 54.6457V58.0372H40.5497V54.6457C40.5497 53.4378 40.1251 52.8338 39.2725 52.8338C38.42 52.8338 37.9496 53.4378 37.9496 54.6457V58.0372H37.0873V52.2394H37.9496V52.9451C38.2893 52.392 38.7924 52.1155 39.4587 52.1155C40.2067 52.1155 40.7522 52.4461 41.092 53.1104C41.5166 52.4492 42.1176 52.1155 42.895 52.1155C44.2114 52.1155 44.8712 52.9101 44.8712 54.5026V58.0372H44.8745Z" fill="#A3BA0D"></path><path d="M50.9894 58.0371H50.127V57.3315C49.6077 57.8846 48.987 58.1611 48.2717 58.1611C47.736 58.1611 47.3015 58.0276 46.9716 57.7638C46.5731 57.4396 46.3706 56.9532 46.3706 56.3048C46.3706 55.6945 46.6058 55.2241 47.0729 54.8903C47.4812 54.5947 48.0038 54.4485 48.6441 54.4485C49.2157 54.4485 49.7122 54.5598 50.127 54.7791V54.0957C50.127 53.2406 49.6959 52.8147 48.8368 52.8147C48.2782 52.8147 47.7392 52.9609 47.2199 53.2565L46.903 52.5827C47.4845 52.2743 48.1508 52.1186 48.9021 52.1186C50.2936 52.1186 50.9894 52.7448 50.9894 53.9971V58.0403V58.0371ZM50.127 56.6131V55.4434C49.7187 55.2209 49.2124 55.1128 48.6016 55.1128C47.6739 55.1128 47.2101 55.4911 47.2101 56.2508C47.2101 57.0772 47.6119 57.4872 48.4187 57.4872C49.1275 57.4872 49.6959 57.198 50.127 56.6163V56.6131Z" fill="#A3BA0D"></path><path d="M61.9313 58.0372H61.0004L60.3209 56.0728H57.0414L56.3489 58.0372H55.4409L58.1977 50.3068H59.1744L61.9313 58.0372ZM60.0466 55.2877L59.1744 52.748C58.9098 51.982 58.7465 51.4734 58.6877 51.2223C58.6191 51.4956 58.4525 52.0106 58.1879 52.7671L57.3125 55.2845H60.0466V55.2877Z" fill="#A3BA0D"></path><path d="M71.2607 58.0372H70.3983V54.6457C70.3983 53.9972 70.2938 53.5331 70.088 53.2534C69.8789 52.9737 69.5588 52.8338 69.1211 52.8338C68.2392 52.8338 67.7982 53.4378 67.7982 54.6457V58.0372H66.9359V54.6457C66.9359 53.4378 66.5112 52.8338 65.6587 52.8338C64.8061 52.8338 64.3358 53.4378 64.3358 54.6457V58.0372H63.4734V52.2394H64.3358V52.9451C64.6755 52.392 65.1785 52.1155 65.8449 52.1155C66.5929 52.1155 67.1384 52.4461 67.4781 53.1104C67.9027 52.4492 68.5038 52.1155 69.2812 52.1155C70.5976 52.1155 71.2574 52.9101 71.2574 54.5026V58.0372H71.2607Z" fill="#A3BA0D"></path><path d="M77.8756 55.043C77.8756 56.0284 77.6568 56.8071 77.2158 57.3729C76.8075 57.8942 76.2783 58.158 75.625 58.158C74.9718 58.158 74.4132 57.9006 73.9461 57.3856V58.0372H73.0837V50.4594L73.9461 49.9954V52.9451C74.4687 52.392 75.0665 52.1155 75.7394 52.1155C76.3731 52.1155 76.8794 52.3475 77.2485 52.8116C77.6633 53.3265 77.8724 54.0703 77.8724 55.043H77.8756ZM77.0361 55.0557C77.0361 54.3342 76.9022 53.7843 76.6376 53.406C76.3731 53.0278 76.004 52.837 75.527 52.837C74.9358 52.837 74.4099 53.1168 73.9493 53.6762V56.5687C74.3446 57.1504 74.8803 57.4397 75.5597 57.4397C76.5429 57.4397 77.0361 56.645 77.0361 55.0557Z" fill="#A3BA0D"></path><path d="M80.531 50.6153C80.531 50.7774 80.4722 50.9141 80.3546 51.0285C80.237 51.1429 80.0998 51.2001 79.9398 51.2001C79.7667 51.2001 79.6164 51.1429 79.4955 51.0285C79.3747 50.9141 79.3126 50.7774 79.3126 50.6153C79.3126 50.4468 79.3747 50.3038 79.4955 50.1893C79.6164 50.0749 79.7634 50.0177 79.9398 50.0177C80.0998 50.0177 80.237 50.0781 80.3546 50.1957C80.4722 50.3133 80.531 50.4532 80.531 50.6153ZM80.3514 58.0373H79.489V52.2395H80.3514V58.0373Z" fill="#A3BA0D"></path><path d="M86.8418 54.9666C86.8418 55.1351 86.8287 55.2877 86.8091 55.418H82.8371C82.8763 56.0442 83.0396 56.5368 83.3303 56.8992C83.6211 57.2616 84.0098 57.4396 84.4932 57.4396C85.0224 57.4396 85.5711 57.2552 86.1395 56.8865L86.538 57.4841C86.1428 57.7256 85.8096 57.8941 85.5385 57.9799C85.2053 58.0975 84.8264 58.1579 84.4017 58.1579C83.7583 58.1579 83.2193 57.9323 82.7848 57.4841C82.2459 56.9405 81.978 56.1491 81.978 55.1096C81.978 54.2037 82.2099 53.479 82.6705 52.9355C83.1344 52.3919 83.7256 52.1186 84.4442 52.1186C85.202 52.1186 85.7965 52.3888 86.231 52.9259C86.6393 53.4345 86.845 54.1147 86.845 54.9698L86.8418 54.9666ZM86.048 54.7441C85.9729 53.4695 85.4339 52.8338 84.4377 52.8338C83.4414 52.8338 82.9351 53.4695 82.8371 54.7441H86.048Z" fill="#A3BA0D"></path><path d="M93.0058 58.0371H92.1434V54.6456C92.1434 53.4377 91.6763 52.8338 90.7421 52.8338C90.3044 52.8338 89.9581 52.9768 89.7034 53.2629C89.4159 53.5807 89.2722 54.0384 89.2722 54.6424V58.034H88.4099V52.2362H89.2722V52.9418C89.6576 52.3888 90.2064 52.1122 90.9185 52.1122C92.31 52.1122 93.0058 52.9069 93.0058 54.4993V58.034V58.0371Z" fill="#A3BA0D"></path><path d="M97.4315 52.9356H95.9551V56.7118C95.9551 56.9692 95.9975 57.1504 96.0857 57.2521C96.1739 57.3538 96.3307 57.4079 96.5561 57.4079C96.8436 57.4079 97.1245 57.3538 97.3956 57.2426L97.3368 57.961C97.0101 58.0945 96.641 58.158 96.2295 58.158C95.4684 58.158 95.0895 57.7194 95.0895 56.8421V52.9324H94.3643V52.2363H95.0895V50.4563L95.9518 49.9954V52.2363H97.4282V52.9324L97.4315 52.9356Z" fill="#A3BA0D"></path><path d="M103.354 58.0371H102.491V57.3315C101.972 57.8846 101.351 58.1611 100.636 58.1611C100.1 58.1611 99.6659 58.0276 99.336 57.7638C98.9374 57.4396 98.7349 56.9532 98.7349 56.3048C98.7349 55.6945 98.9701 55.2241 99.4372 54.8903C99.8455 54.5947 100.368 54.4485 101.008 54.4485C101.58 54.4485 102.077 54.5598 102.491 54.7791V54.0957C102.491 53.2406 102.06 52.8147 101.201 52.8147C100.643 52.8147 100.104 52.9609 99.5842 53.2565L99.2674 52.5827C99.8488 52.2743 100.515 52.1186 101.266 52.1186C102.658 52.1186 103.354 52.7448 103.354 53.9971V58.0403V58.0371ZM102.491 56.6131V55.4434C102.083 55.2209 101.577 55.1128 100.966 55.1128C100.038 55.1128 99.5744 55.4911 99.5744 56.2508C99.5744 57.0772 99.9762 57.4872 100.783 57.4872C101.492 57.4872 102.06 57.198 102.491 56.6163V56.6131Z" fill="#A3BA0D"></path><path d="M106.101 58.0372H105.238V50.4594L106.101 49.9954V58.0341V58.0372Z" fill="#A3BA0D"></path><path d="M115.462 58.0372H114.6V57.3316C114.081 57.8847 113.483 58.1612 112.813 58.1612C112.18 58.1612 111.677 57.9292 111.308 57.4651C110.893 56.9502 110.684 56.2064 110.684 55.2337C110.684 54.2611 110.902 53.4696 111.34 52.9038C111.748 52.3793 112.274 52.1187 112.924 52.1187C113.574 52.1187 114.13 52.3761 114.6 52.8911V50.4594L115.462 49.9954V58.0341V58.0372ZM114.6 56.6005V53.708C114.208 53.1263 113.672 52.837 112.993 52.837C112.013 52.837 111.523 53.6317 111.523 55.221C111.523 55.9425 111.654 56.4924 111.918 56.8707C112.183 57.2489 112.552 57.4397 113.026 57.4397C113.614 57.4397 114.136 57.1599 114.597 56.6005H114.6Z" fill="#A3BA0D"></path><path d="M122.194 55.097C122.194 56.0474 121.94 56.8007 121.433 57.3602C120.956 57.891 120.339 58.1548 119.585 58.1548C118.83 58.1548 118.219 57.8974 117.759 57.3824C117.265 56.8389 117.02 56.0887 117.02 55.1415C117.02 54.1943 117.275 53.441 117.781 52.8879C118.258 52.3729 118.876 52.1155 119.63 52.1155C120.385 52.1155 120.996 52.3666 121.456 52.8656C121.949 53.4028 122.194 54.1466 122.194 55.097ZM121.332 55.1193C121.332 54.3755 121.175 53.8097 120.862 53.4187C120.548 53.0277 120.127 52.8338 119.601 52.8338C119.075 52.8338 118.654 53.0277 118.347 53.4187C118.036 53.8097 117.883 54.3755 117.883 55.1193C117.883 55.8631 118.036 56.4352 118.347 56.8357C118.657 57.2362 119.075 57.4365 119.601 57.4365C120.127 57.4365 120.548 57.2362 120.862 56.8357C121.175 56.4352 121.332 55.8631 121.332 55.1193Z" fill="#A3BA0D"></path><path d="M131.886 51.0887H129.547V58.0371H128.662V51.0887H126.323V50.3036H131.886V51.0887Z" fill="#A3BA0D"></path><path d="M136.638 52.2616L136.423 53.1008C136.158 52.9546 135.858 52.8814 135.528 52.8814C135.11 52.8814 134.793 53.0372 134.568 53.3455C134.345 53.6538 134.231 54.0861 134.231 54.636V58.0371H133.369V52.2394H134.231V52.9577C134.375 52.7162 134.581 52.5127 134.845 52.357C135.11 52.198 135.397 52.1186 135.707 52.1186C136.109 52.1186 136.42 52.1663 136.638 52.2616Z" fill="#A3BA0D"></path><path d="M142.28 58.0371H141.417V57.3315C140.898 57.8846 140.278 58.1611 139.562 58.1611C139.026 58.1611 138.592 58.0276 138.262 57.7638C137.864 57.4396 137.661 56.9532 137.661 56.3048C137.661 55.6945 137.896 55.2241 138.363 54.8903C138.772 54.5947 139.294 54.4485 139.935 54.4485C140.506 54.4485 141.003 54.5598 141.417 54.7791V54.0957C141.417 53.2406 140.986 52.8147 140.127 52.8147C139.569 52.8147 139.03 52.9609 138.51 53.2565L138.194 52.5827C138.775 52.2743 139.441 52.1186 140.193 52.1186C141.584 52.1186 142.28 52.7448 142.28 53.9971V58.0403V58.0371ZM141.417 56.6131V55.4434C141.009 55.2209 140.503 55.1128 139.892 55.1128C138.964 55.1128 138.501 55.4911 138.501 56.2508C138.501 57.0772 138.902 57.4872 139.709 57.4872C140.418 57.4872 140.986 57.198 141.417 56.6163V56.6131Z" fill="#A3BA0D"></path><path d="M148.705 58.0371H147.843V54.6456C147.843 53.4377 147.376 52.8338 146.441 52.8338C146.004 52.8338 145.657 52.9768 145.403 53.2629C145.115 53.5807 144.971 54.0384 144.971 54.6424V58.034H144.109V52.2362H144.971V52.9418C145.357 52.3888 145.906 52.1122 146.618 52.1122C148.009 52.1122 148.705 52.9069 148.705 54.4993V58.034V58.0371Z" fill="#A3BA0D"></path><path d="M154.255 56.5241C154.255 57.0613 154.043 57.4777 153.622 57.7733C153.249 58.0308 152.782 58.1611 152.214 58.1611C151.449 58.1611 150.75 57.9132 150.113 57.4205L150.613 56.8134C151.113 57.2393 151.652 57.4555 152.237 57.4555C153.037 57.4555 153.439 57.1567 153.439 56.5591C153.439 56.3239 153.337 56.1236 153.138 55.9615C152.939 55.7994 152.57 55.6055 152.031 55.3767C151.397 55.1128 150.963 54.8681 150.737 54.6488C150.473 54.3913 150.339 54.0416 150.339 53.5998C150.339 53.158 150.512 52.802 150.861 52.5286C151.211 52.2553 151.655 52.1186 152.201 52.1186C152.955 52.1186 153.592 52.3252 154.108 52.7384L153.631 53.3455C153.177 52.9991 152.681 52.8274 152.145 52.8274C151.835 52.8274 151.593 52.8942 151.42 53.0277C151.247 53.1612 151.159 53.3328 151.159 53.5458C151.159 53.781 151.253 53.9717 151.443 54.1211C151.603 54.2546 151.946 54.439 152.475 54.6742C153.135 54.9603 153.573 55.205 153.791 55.4021C154.102 55.6754 154.255 56.0505 154.255 56.5273V56.5241Z" fill="#A3BA0D"></path><path d="M160.631 55.043C160.631 56.0283 160.412 56.8071 159.971 57.3729C159.563 57.8942 159.034 58.158 158.381 58.158C157.727 58.158 157.169 57.9005 156.702 57.3856V59.706L155.839 60.1701V52.2394H156.702V52.9451C157.224 52.392 157.822 52.1155 158.495 52.1155C159.129 52.1155 159.635 52.3475 160.004 52.8116C160.419 53.3265 160.628 54.0703 160.628 55.043H160.631ZM159.792 55.0557C159.792 54.3341 159.658 53.7842 159.393 53.406C159.129 53.0277 158.756 52.837 158.283 52.837C157.691 52.837 157.166 53.1167 156.705 53.6762V56.5687C157.1 57.1504 157.636 57.4396 158.315 57.4396C159.299 57.4396 159.792 56.645 159.792 55.0557Z" fill="#A3BA0D"></path><path d="M167.056 55.097C167.056 56.0474 166.801 56.8007 166.295 57.3602C165.818 57.891 165.201 58.1548 164.446 58.1548C163.692 58.1548 163.081 57.8974 162.62 57.3824C162.127 56.8389 161.882 56.0887 161.882 55.1415C161.882 54.1943 162.137 53.441 162.643 52.8879C163.12 52.3729 163.737 52.1155 164.492 52.1155C165.247 52.1155 165.857 52.3666 166.318 52.8656C166.811 53.4028 167.056 54.1466 167.056 55.097ZM166.194 55.1193C166.194 54.3755 166.037 53.8097 165.723 53.4187C165.41 53.0277 164.989 52.8338 164.463 52.8338C163.937 52.8338 163.515 53.0277 163.208 53.4187C162.898 53.8097 162.744 54.3755 162.744 55.1193C162.744 55.8631 162.898 56.4352 163.208 56.8357C163.519 57.2362 163.937 57.4365 164.463 57.4365C164.989 57.4365 165.41 57.2362 165.723 56.8357C166.037 56.4352 166.194 55.8631 166.194 55.1193Z" fill="#A3BA0D"></path><path d="M171.877 52.2616L171.661 53.1008C171.397 52.9546 171.096 52.8814 170.766 52.8814C170.352 52.8814 170.031 53.0372 169.806 53.3455C169.584 53.6538 169.47 54.0861 169.47 54.636V58.0371H168.607V52.2394H169.47V52.9577C169.613 52.7162 169.819 52.5127 170.084 52.357C170.348 52.198 170.636 52.1186 170.946 52.1186C171.348 52.1186 171.658 52.1663 171.877 52.2616Z" fill="#A3BA0D"></path><path d="M175.817 52.9356H174.341V56.7118C174.341 56.9692 174.383 57.1504 174.471 57.2521C174.56 57.3538 174.716 57.4079 174.942 57.4079C175.229 57.4079 175.51 57.3538 175.781 57.2426L175.722 57.961C175.396 58.0945 175.027 58.158 174.615 58.158C173.854 58.158 173.475 57.7194 173.475 56.8421V52.9324H172.75V52.2363H173.475V50.4563L174.337 49.9954V52.2363H175.814V52.9324L175.817 52.9356Z" fill="#A3BA0D"></path><path d="M182.013 54.9666C182.013 55.1351 182 55.2877 181.981 55.418H178.009C178.048 56.0442 178.211 56.5368 178.502 56.8992C178.793 57.2616 179.181 57.4396 179.665 57.4396C180.194 57.4396 180.743 57.2552 181.311 56.8865L181.71 57.4841C181.314 57.7256 180.981 57.8941 180.71 57.9799C180.377 58.0975 179.998 58.1579 179.573 58.1579C178.93 58.1579 178.391 57.9323 177.956 57.4841C177.417 56.9405 177.15 56.1491 177.15 55.1096C177.15 54.2037 177.382 53.479 177.842 52.9355C178.306 52.3919 178.897 52.1186 179.616 52.1186C180.374 52.1186 180.968 52.3888 181.403 52.9259C181.811 53.4345 182.017 54.1147 182.017 54.9698L182.013 54.9666ZM181.22 54.7441C181.144 53.4695 180.605 52.8338 179.609 52.8338C178.613 52.8338 178.107 53.4695 178.009 54.7441H181.22Z" fill="#A3BA0D"></path><path fill-rule="evenodd" clip-rule="evenodd" d="M14.4636 79.1082C13.5653 80.8532 12.5364 82.131 11.3768 82.9416C10.0735 83.8475 8.41414 84.302 6.39547 84.302C4.08608 84.302 2.60311 83.7998 1.94655 82.7954C1.22467 81.6574 1.35532 79.6772 2.33853 76.8609C3.32173 74.0447 4.57278 72.0644 6.09169 70.9264C7.45053 69.922 9.28302 69.4198 11.5924 69.4198C13.6535 69.4198 15.0254 69.887 15.7081 70.8216C16.2961 71.6448 16.3745 72.9321 15.9433 74.6772L10.0964 75.1508C10.4622 74.0383 10.6647 73.339 10.6974 73.0498C10.7301 72.7605 10.6582 72.6175 10.4785 72.6175C10.276 72.6175 10.0735 72.8145 9.86771 73.215C9.61619 73.7363 9.15889 74.9537 8.49253 76.8641C7.82618 78.7744 7.4342 79.9918 7.31988 80.5131C7.24801 80.9105 7.31334 81.1107 7.51586 81.1107C7.69552 81.1107 7.86537 80.9804 8.02216 80.7197C8.17895 80.4591 8.51213 79.7375 9.0119 78.5551L14.4669 79.1114L14.4636 79.1082ZM26.5495 84.0763H21.7413L21.3232 81.419C21.088 79.906 20.9737 78.6981 20.9769 77.7891C20.7711 78.5742 20.4053 79.7217 19.8761 81.2315L18.8831 84.0763H13.4347L18.4716 69.6486H23.5836L23.871 71.4223C24.1552 73.1833 24.3022 74.4928 24.312 75.3606C24.5112 74.4674 24.8967 73.2087 25.4618 71.5876L26.1379 69.6518H31.5831L26.5462 84.0795L26.5495 84.0763ZM42.8426 72.8431H40.0857L36.1627 84.0763H30.1099L34.0297 72.8431H31.2728L32.3899 69.6486H43.9565L42.8393 72.8431H42.8426Z" fill="#003870"></path><path d="M53.3404 69.6486H52.5172V84.0763H53.3404V69.6486Z" fill="#003870"></path><path fill-rule="evenodd" clip-rule="evenodd" d="M74.429 80.0935C74.0011 81.3204 73.1355 82.2676 71.8387 82.932C70.542 83.5995 68.912 83.93 66.9521 83.93C64.9923 83.93 63.6857 83.6153 62.9671 82.9892C62.2484 82.363 62.059 81.26 62.3954 79.6802L67.625 79.0731C67.3637 80.4304 67.478 81.1106 67.968 81.1106C68.3926 81.1106 68.6866 80.8817 68.8467 80.424C69.0067 79.9663 68.9675 79.5563 68.7323 79.1907C68.4972 78.8252 67.9843 78.4056 67.1906 77.9384C66.0114 77.2327 65.2209 76.5684 64.8224 75.9422C64.4206 75.262 64.3749 74.4737 64.6917 73.5741C65.5704 71.0535 68.0007 69.7948 71.9825 69.7948C73.8346 69.7948 75.1183 70.1158 75.8336 70.7547C76.549 71.3936 76.7678 72.379 76.4934 73.7108L71.4598 74.3179C71.6624 73.1832 71.5219 72.6142 71.0319 72.6142C70.6498 72.6142 70.3917 72.7985 70.2643 73.1641C70.1565 73.4788 70.2055 73.7585 70.4178 74.0064C70.6171 74.2925 71.1136 74.6739 71.9073 75.1412C73.227 75.9358 74.0599 76.6606 74.4062 77.3153C74.8178 78.0337 74.8243 78.9587 74.4258 80.0966M84.0847 83.7171H74.0534L78.8388 70.0077H88.8374L87.7791 73.0433H83.5294L82.8532 74.9822H86.3026L85.2541 77.9797H81.8047L80.8607 80.6815H85.1398L84.0814 83.7171H84.0847ZM98.1011 80.0935C97.6732 81.3204 96.8075 82.2676 95.5108 82.932C94.214 83.5995 92.584 83.93 90.6274 83.93C88.6708 83.93 87.361 83.6153 86.6423 82.9892C85.9237 82.363 85.7343 81.26 86.0707 79.6802L91.3003 79.0731C91.039 80.4304 91.1533 81.1106 91.6433 81.1106C92.0679 81.1106 92.3619 80.8817 92.522 80.424C92.682 79.9663 92.6428 79.5563 92.4109 79.1907C92.1757 78.8252 91.6629 78.4056 90.8691 77.9384C89.6899 77.2327 88.8995 76.5684 88.5009 75.9422C88.0992 75.262 88.0567 74.4737 88.3703 73.5741C89.249 71.0535 91.6792 69.7948 95.661 69.7948C97.5131 69.7948 98.7968 70.1158 99.5122 70.7547C100.228 71.3936 100.446 72.379 100.172 73.7108L95.1384 74.3179C95.3442 73.1832 95.2005 72.6142 94.7105 72.6142C94.325 72.6142 94.0703 72.7985 93.9429 73.1641C93.8351 73.4788 93.8841 73.7585 94.0964 74.0064C94.2956 74.2925 94.7921 74.6739 95.5859 75.1412C96.9055 75.9358 97.7385 76.6606 98.0847 77.3153C98.493 78.0337 98.4996 78.9587 98.1043 80.0966M112.183 73.0433H109.563L105.839 83.7171H100.09L103.817 73.0433H101.198L102.259 70.0077H113.248L112.186 73.0433H112.183Z" fill="#003870"></path><path fill-rule="evenodd" clip-rule="evenodd" d="M130.641 80.0935C130.213 81.3204 129.348 82.2676 128.054 82.932C126.757 83.5995 125.127 83.93 123.168 83.93C121.208 83.93 119.901 83.6153 119.182 82.9892C118.464 82.363 118.274 81.26 118.614 79.6802L123.84 79.0731C123.579 80.4304 123.693 81.1106 124.183 81.1106C124.608 81.1106 124.902 80.8817 125.062 80.424C125.222 79.9663 125.183 79.5563 124.951 79.1907C124.716 78.8252 124.203 78.4056 123.409 77.9384C122.23 77.2327 121.44 76.5684 121.041 75.9422C120.639 75.262 120.594 74.4737 120.91 73.5741C121.789 71.0535 124.219 69.7948 128.204 69.7948C130.056 69.7948 131.34 70.1158 132.052 70.7547C132.768 71.3936 132.986 72.379 132.712 73.7108L127.675 74.3179C127.881 73.1832 127.737 72.6142 127.247 72.6142C126.865 72.6142 126.607 72.7985 126.48 73.1641C126.372 73.4788 126.421 73.7585 126.633 74.0064C126.832 74.2925 127.329 74.6739 128.123 75.1412C129.442 75.9358 130.275 76.6606 130.622 77.3153C131.03 78.0337 131.036 78.9587 130.641 80.0966M140.297 83.7171H130.266L135.051 70.0077H145.049L143.988 73.0433H139.738L139.062 74.9822H142.511L141.466 77.9797H138.017L137.073 80.6815H141.352L140.294 83.7171H140.297ZM153.617 83.7171H149.051L148.656 81.1901C148.434 79.7533 148.322 78.6059 148.326 77.7445C148.13 78.4883 147.784 79.5785 147.28 81.0152L146.336 83.7171H141.162L145.948 70.0077H150.802L151.076 71.6924C151.344 73.3612 151.484 74.6103 151.494 75.4336C151.684 74.5849 152.046 73.3898 152.585 71.8513L153.225 70.0109H158.4L153.614 83.7202L153.617 83.7171ZM168.12 83.7171H162.466L162.839 81.6414H160.604L159.526 83.7171H154.065L162.14 70.0077H169.617L168.12 83.7171ZM163.316 78.8983L163.466 78.1926C163.61 77.4743 163.988 75.8754 164.599 73.3961C163.975 74.817 163.234 76.4158 162.381 78.1926L162.038 78.8983H163.316ZM181.108 73.0433H178.488L174.761 83.7171H169.012L172.739 73.0433H170.12L171.181 70.0077H182.17L181.108 73.0433Z" fill="#003870"></path><path d="M174.797 43.635L171.394 26.0446C171.305 25.5964 170.904 25.269 170.433 25.269C169.894 25.269 169.457 25.6949 169.457 26.2194V43.457C169.457 43.9815 169.019 44.4074 168.48 44.4074H163.348C162.809 44.4074 162.372 43.9815 162.372 43.457V1.85855C162.372 1.33408 162.809 0.908142 163.348 0.908142H171.694C173.099 0.908142 174.409 1.10522 175.624 1.49936C176.836 1.89351 177.9 2.55466 178.818 3.48917C179.733 4.42051 180.455 5.65381 180.99 7.18589C181.523 8.71798 181.787 10.6251 181.787 12.9042C181.787 15.4312 181.435 17.5545 180.732 19.2741C180.115 20.7872 179.289 22.0046 178.256 22.9232C177.998 23.1552 177.868 23.4858 177.94 23.8227L181.997 43.2726C182.121 43.8607 181.657 44.4138 181.039 44.4138H175.767C175.297 44.4138 174.892 44.0864 174.807 43.6382L174.797 43.635ZM173.765 8.20941C173.233 7.27807 172.347 6.81082 171.113 6.81082H170.43C169.891 6.81082 169.453 7.23675 169.453 7.76122V19.5507H170.923C172.158 19.5507 173.073 19.0739 173.67 18.1203C174.265 17.1667 174.565 15.5297 174.565 13.2094C174.565 10.889 174.297 9.13756 173.768 8.20623L173.765 8.20941Z" fill="#A3BA0D"></path><path d="M84.0258 19.1502C83.4705 20.7872 82.7257 22.1317 81.7915 23.1902C80.8541 24.2455 79.7467 25.0243 78.4696 25.5201C77.1924 26.016 75.8303 26.2639 74.3832 26.2639H73.5078C72.9688 26.2639 72.5311 26.6898 72.5311 27.2143V43.457C72.5311 43.9815 72.0934 44.4074 71.5545 44.4074H66.4196C65.8806 44.4074 65.4429 43.9815 65.4429 43.457V1.85855C65.4429 1.33408 65.8806 0.908142 66.4196 0.908142H74.8307C76.1928 0.908142 77.4798 1.11475 78.6949 1.53115C79.9068 1.94755 80.9717 2.63095 81.8895 3.58135C82.8041 4.53494 83.526 5.79684 84.0617 7.37343C84.5942 8.95002 84.8588 10.8953 84.8588 13.2157C84.8588 15.5361 84.5811 17.5132 84.0291 19.1502H84.0258ZM76.8396 8.30477C76.3072 7.30986 75.4252 6.814 74.1905 6.814H73.5078C72.9688 6.814 72.5311 7.23993 72.5311 7.7644V20.2977H74.001C75.2358 20.2977 76.1504 19.77 76.7481 18.7115C77.3426 17.6562 77.6431 15.9271 77.6431 13.5209C77.6431 11.1147 77.3753 9.29649 76.8461 8.30159L76.8396 8.30477Z" fill="#A3BA0D"></path><path d="M18.7653 39.0038C16.8904 42.6083 13.9114 44.4106 9.82505 44.4106H2.62578C2.08681 44.4106 1.64911 43.9847 1.64911 43.4602V1.85855C1.64911 1.33408 2.08681 0.908142 2.62578 0.908142H10.5241C12.6963 0.908142 14.4928 1.39447 15.9203 2.3703C17.3477 3.34296 18.4746 4.74155 19.3043 6.56607C20.134 8.39059 20.7187 10.6379 21.0617 13.3079C21.4014 15.9811 21.5712 18.9944 21.5712 22.351C21.5712 29.8494 20.6338 35.4024 18.7621 39.007L18.7653 39.0038ZM13.9735 14.6588C13.8036 12.6531 13.5488 11.0924 13.2058 9.97672C12.8629 8.86102 12.4284 8.09498 11.896 7.68176C11.3636 7.26854 10.7135 7.06193 9.94918 7.06193H8.73732V38.3839H9.82178C10.5437 38.3839 11.1839 38.1678 11.7392 37.7323C12.2912 37.3 12.7485 36.5022 13.1111 35.3452C13.4737 34.1882 13.7513 32.5766 13.9408 30.5074C14.1335 28.4381 14.2282 25.7522 14.2282 22.4432C14.2282 19.1343 14.1433 16.6645 13.9735 14.6588Z" fill="#A3BA0D"></path><path d="M24.0928 43.4602V1.85855C24.0928 1.33408 24.5305 0.908142 25.0695 0.908142H39.8469C40.3859 0.908142 40.8236 1.33408 40.8236 1.85855V6.41985C40.8236 6.94432 40.3859 7.37025 39.8469 7.37025H32.223C31.684 7.37025 31.2463 7.79619 31.2463 8.32066V17.2939C31.2463 17.8183 31.684 18.2443 32.223 18.2443H37.6127C38.1516 18.2443 38.5893 18.6702 38.5893 19.1947V23.756C38.5893 24.2805 38.1516 24.7064 37.6127 24.7064H32.223C31.684 24.7064 31.2463 25.1323 31.2463 25.6568V36.9917C31.2463 37.5162 31.684 37.9421 32.223 37.9421H40.4218C40.9608 37.9421 41.3985 38.368 41.3985 38.8925V43.4538C41.3985 43.9783 40.9608 44.4042 40.4218 44.4042H25.0695C24.5305 44.4042 24.0928 43.9783 24.0928 43.4538V43.4602Z" fill="#A3BA0D"></path><path d="M61.5625 38.6315C61.1379 39.957 60.5205 41.0981 59.7104 42.0485C58.9004 43.0021 57.9106 43.7459 56.7412 44.2863C55.5686 44.8234 54.2195 45.0936 52.6876 45.0936C49.493 45.0936 47.1313 44.0669 45.5993 42.0167C44.1915 40.1318 43.2867 37.5381 42.8849 34.2387C42.8261 33.7428 43.1822 33.2819 43.6917 33.1929L48.5914 32.3474C49.1434 32.252 49.6661 32.6335 49.7314 33.177C49.8392 34.0575 49.9601 34.8108 50.1005 35.4307C50.2932 36.2793 50.5154 36.9532 50.7701 37.4491C51.0249 37.9449 51.3124 38.2882 51.6325 38.4758C51.9526 38.6633 52.3021 38.7555 52.6876 38.7555C53.5826 38.7555 54.2293 38.4567 54.6344 37.8559C55.0394 37.2552 55.2419 36.2507 55.2419 34.8426C55.2419 33.8064 55.1472 32.8846 54.9545 32.0772C54.7618 31.2699 54.4645 30.472 54.0595 29.6837C53.6544 28.8986 53.1122 28.0881 52.4295 27.2585C51.7468 26.4288 50.8975 25.4784 49.8751 24.4009C47.5756 22.1631 45.8737 19.9667 44.7664 17.8148C43.6591 15.6597 43.107 13.3393 43.107 10.8536C43.107 9.32156 43.2998 7.91344 43.6819 6.6261C44.0641 5.34194 44.639 4.22307 45.4066 3.26949C46.1742 2.31591 47.1313 1.57211 48.2811 1.03175C49.4309 0.494562 50.7701 0.22438 52.3054 0.22438C53.8406 0.22438 55.2223 0.472312 56.3297 0.971354C57.437 1.46722 58.3745 2.17287 59.1388 3.08513C59.9064 3.99739 60.5009 5.09401 60.9256 6.37817C61.2718 7.42075 61.5462 8.57459 61.752 9.8365C61.8336 10.3324 61.4874 10.8091 60.9811 10.914L56.2121 11.8867C55.6633 11.9979 55.1243 11.6356 55.0459 11.0952C54.8075 9.48049 54.5135 8.34573 54.1575 7.68776C53.7296 6.90264 53.1122 6.50849 52.3054 6.50849C51.5378 6.50849 50.9629 6.79774 50.5807 7.37943C50.1985 7.96112 50.0058 8.93377 50.0058 10.3006C50.0058 11.0475 50.0809 11.7405 50.2279 12.3826C50.3749 13.0246 50.633 13.6667 50.9955 14.3088C51.3581 14.9509 51.8252 15.6343 52.4001 16.359C52.975 17.0837 53.71 17.9038 54.605 18.8129C55.8822 20.097 56.9993 21.3399 57.9563 22.5414C58.9134 23.7429 59.7137 24.9635 60.3507 26.2095C60.9909 27.4523 61.458 28.727 61.7552 30.0302C62.0525 31.3366 62.2027 32.7352 62.2027 34.226C62.2027 35.8407 61.9904 37.3124 61.5625 38.6379V38.6315Z" fill="#A3BA0D"></path><path d="M107.126 32.478C106.786 35.2943 106.202 37.6369 105.369 39.4996C104.539 41.3654 103.442 42.7608 102.079 43.6953C100.717 44.6267 99.0351 45.0939 97.0327 45.0939C95.0304 45.0939 93.4331 44.6362 92.1167 43.7271C90.7971 42.8148 89.742 41.4385 88.9548 39.5949C88.1675 37.7513 87.6025 35.4309 87.2627 32.6338C86.9198 29.8366 86.7532 26.5531 86.7532 22.7833C86.7532 19.0134 86.923 15.7077 87.2627 12.8692C87.6025 10.0307 88.1773 7.6785 88.9874 5.81583C89.7975 3.95317 90.8591 2.55458 92.182 1.62007C93.5017 0.688737 95.161 0.221481 97.1634 0.221481C101.122 0.221481 103.86 2.08733 105.369 5.81583C106.878 9.54434 107.636 15.1164 107.636 22.5321C107.636 26.3433 107.466 29.6586 107.123 32.4748L107.126 32.478ZM100.129 14.6428C100.022 12.5291 99.8386 10.8825 99.5805 9.70327C99.3225 8.52401 98.9893 7.71346 98.581 7.27799C98.1727 6.84252 97.6893 6.62638 97.1274 6.62638C96.5231 6.62638 96.0299 6.83299 95.6445 7.24939C95.2558 7.66578 94.9455 8.46044 94.7103 9.64288C94.4751 10.8253 94.3118 12.4496 94.2268 14.522C94.1419 16.5945 94.0994 19.2677 94.0994 22.5385C94.0994 25.8093 94.1517 28.5651 94.2595 30.6789C94.3673 32.7927 94.5502 34.4392 94.8083 35.6185C95.0663 36.7977 95.3897 37.6083 95.7751 38.0438C96.1638 38.4792 96.6342 38.6954 97.196 38.6954C97.7579 38.6954 98.238 38.4888 98.6463 38.0724C99.0547 37.6591 99.378 36.8613 99.6132 35.6789C99.8484 34.4996 100.022 32.8817 100.129 30.8315C100.237 28.7813 100.289 26.0985 100.289 22.7833C100.289 19.468 100.237 16.7534 100.129 14.6428Z" fill="#A3BA0D"></path><path d="M111.258 43.4602V1.85855C111.258 1.33408 111.696 0.908142 112.235 0.908142H117.432C117.971 0.908142 118.408 1.33408 118.408 1.85855V36.9949C118.408 37.5194 118.846 37.9453 119.385 37.9453H125.925C126.463 37.9453 126.901 38.3712 126.901 38.8957V43.457C126.901 43.9815 126.463 44.4074 125.925 44.4074H112.235C111.696 44.4074 111.258 43.9815 111.258 43.457V43.4602Z" fill="#A3BA0D"></path><path d="M145.546 42.0489C143.906 44.08 141.342 45.094 137.85 45.094C134.613 45.094 132.134 44.08 130.409 42.0489C128.685 40.0178 127.822 37.2428 127.822 33.7209V1.85855C127.822 1.33408 128.26 0.908142 128.799 0.908142H133.996C134.535 0.908142 134.972 1.33408 134.972 1.85855V33.7813C134.972 35.6058 135.227 36.8805 135.74 37.6052C136.25 38.3299 136.998 38.6923 137.978 38.6923C139.039 38.6923 139.787 38.3299 140.212 37.6052C140.636 36.8805 140.849 35.6281 140.849 33.8449V1.85855C140.849 1.33408 141.287 0.908142 141.825 0.908142H147.022C147.561 0.908142 147.999 1.33408 147.999 1.85855V33.2855C147.999 37.0966 147.179 40.0178 145.539 42.0489H145.546Z" fill="#A3BA0D"></path><path d="M151.547 43.4602V1.85855C151.547 1.33408 151.984 0.908142 152.523 0.908142H157.72C158.259 0.908142 158.697 1.33408 158.697 1.85855V43.457C158.697 43.9815 158.259 44.4074 157.72 44.4074H152.523C151.984 44.4074 151.547 43.9815 151.547 43.457V43.4602Z" fill="#A3BA0D"></path><path d="M183.392 63.1992H0.267849C0.120859 63.1992 0 63.0816 0 62.9386C0 62.7955 0.120859 62.6779 0.267849 62.6779H183.392C183.539 62.6779 183.66 62.7955 183.66 62.9386C183.66 63.0816 183.539 63.1992 183.392 63.1992Z" fill="#A3BA0D"></path></svg>